<?xml version="1.0" encoding="utf-8"?>
<!-- Generator: Adobe Illustrator 27.3.1, SVG Export Plug-In . SVG Version: 6.00 Build 0)  -->
<svg version="1.1" xmlns="http://www.w3.org/2000/svg" xmlns:xlink="http://www.w3.org/1999/xlink" x="0px" y="0px"
	 viewBox="0 0 750 500" style="enable-background:new 0 0 750 500;" xml:space="preserve">
<style type="text/css">
	.st0{opacity:0.11;}
	.st1{fill:#FFFFFF;}
	.st2{fill:#F0F0F0;}
	.st3{fill:#E1E1E1;}
	.st4{fill:#D2D2D2;}
	.st5{fill:#C4C4C4;}
	.st6{fill:#B5B5B5;}
	.st7{fill:#A6A6A6;}
	.st8{fill:#979797;}
	.st9{fill:#888888;}
	.st10{fill:#797979;}
	.st11{fill:#6A6A6A;}
	.st12{fill:#5B5B5B;}
	.st13{fill:#4D4D4D;}
	.st14{fill:#3E3E3E;}
	.st15{fill:#2F2F2F;}
	.st16{fill:#202020;}
	.st17{fill:#111111;}
	.st18{clip-path:url(#SVGID_00000067927511916297247000000013603248532163266185_);}
	.st19{fill:#EBF1FF;}
	.st20{fill:#BBCDF9;}
	.st21{fill:#AEC1FC;}
	.st22{fill:#90A5FC;}
	.st23{fill:#738EE5;}
	.st24{fill:#BDD4FF;}
	.st25{opacity:0.1;fill:#BBDEFB;}
	.st26{opacity:0.39;}
	.st27{fill:#1B173D;}
	.st28{fill:#FFA689;}
	.st29{fill:#4764CF;}
	.st30{fill:#5172ED;}
	.st31{fill:#271F50;}
	.st32{fill:#ED8A6D;}
	.st33{fill:#060412;}
	.st34{fill:none;stroke:#060412;stroke-width:0.9422;stroke-miterlimit:10;}
	.st35{fill:#171032;}
	.st36{fill:#211D49;}
	.st37{opacity:0.22;fill:none;stroke:#FFFFFF;stroke-width:0.25;stroke-miterlimit:10;}
	.st38{fill:#2E2C60;}
	.st39{fill:#1C163F;}
	.st40{fill:#EA5353;}
	.st41{fill:#FF0B0B;}
	.st42{fill:none;stroke:#FFFFFF;stroke-width:0.3951;stroke-linecap:round;stroke-linejoin:round;stroke-miterlimit:10;}
	.st43{fill:none;stroke:#FFFFFF;stroke-width:0.4765;stroke-linecap:round;stroke-linejoin:round;stroke-miterlimit:10;}
	.st44{fill:none;stroke:#FFFFFF;stroke-width:0.4362;stroke-linecap:round;stroke-linejoin:round;stroke-miterlimit:10;}
</style>
<g id="BACKGROUND">
	<g id="Shadow" class="st0">
		<path class="st1" d="M6.53,498.45V71.85c0-13.98,11.53-25.31,25.76-22.73h705.47c14.23-2.58,25.76,8.75,25.76,22.73v426.6
			c0,13.98-11.53,25.31-25.76,25.31H32.29C18.07,523.76,6.53,512.43,6.53,498.45z"/>
		<path class="st2" d="M6.28,498.23V69.88c0-13.32,10.99-24.12,24.55-21.7h707.31c13.56-2.42,24.55,8.38,24.55,21.7v428.35
			c0,13.32-10.99,24.12-24.55,24.12H30.83C17.27,522.35,6.28,511.55,6.28,498.23z"/>
		<path class="st3" d="M6.03,498.02V67.92c0-12.66,10.45-22.93,23.33-20.68h709.15c12.88-2.25,23.33,8.01,23.33,20.68v430.1
			c0,12.66-10.44,22.93-23.33,22.93H29.36C16.48,520.95,6.03,510.68,6.03,498.02z"/>
		<path class="st4" d="M5.78,497.8V65.95c0-12.01,9.9-21.74,22.11-19.65h710.99C751.1,44.21,761,53.94,761,65.95V497.8
			c0,12.01-9.9,21.74-22.11,21.74H27.89C15.68,519.54,5.78,509.81,5.78,497.8z"/>
		<path class="st5" d="M5.53,497.58V63.98c0-11.35,9.36-20.55,20.9-18.62h712.83c11.54-1.93,20.9,7.27,20.9,18.62v433.6
			c0,11.35-9.36,20.55-20.9,20.55H26.43C14.89,518.14,5.53,508.93,5.53,497.58z"/>
		<path class="st6" d="M5.28,497.36V62.02c0-10.69,8.81-19.36,19.68-17.59h714.67c10.87-1.77,19.68,6.9,19.68,17.59v435.35
			c0,10.69-8.81,19.36-19.68,19.36H24.96C14.09,516.73,5.28,508.06,5.28,497.36z"/>
		<path class="st7" d="M5.03,497.15V60.05c0-10.04,8.27-18.18,18.46-16.57H740c10.2-1.61,18.46,6.53,18.46,16.57v437.1
			c0,10.04-8.27,18.18-18.46,18.18H23.49C13.3,515.32,5.03,507.19,5.03,497.15z"/>
		<path class="st8" d="M4.78,496.93V58.08c0-9.38,7.72-16.99,17.24-15.54h718.35c9.52-1.45,17.24,6.16,17.24,15.54v438.85
			c0,9.38-7.72,16.99-17.24,16.99H22.03C12.5,513.92,4.78,506.31,4.78,496.93z"/>
		<path class="st9" d="M4.53,496.71V56.11c0-8.73,7.18-15.8,16.03-14.51h720.19c8.85-1.29,16.03,5.79,16.03,14.51v440.6
			c0,8.73-7.18,15.8-16.03,15.8H20.56C11.71,512.51,4.53,505.44,4.53,496.71z"/>
		<path class="st10" d="M4.28,496.5V54.15c0-8.07,6.63-14.61,14.81-13.48h722.03c8.18-1.13,14.81,5.41,14.81,13.48V496.5
			c0,8.07-6.63,14.61-14.81,14.61H19.09C10.91,511.11,4.28,504.57,4.28,496.5z"/>
		<path class="st11" d="M4.03,496.28V52.18c0-7.41,6.09-13.42,13.59-12.46h723.87c7.51-0.97,13.59,5.04,13.59,12.46v444.1
			c0,7.41-6.09,13.42-13.59,13.42H17.62C10.12,509.7,4.03,503.69,4.03,496.28z"/>
		<path class="st12" d="M3.78,496.06V50.21c0-6.76,5.54-12.23,12.38-11.43h725.71c6.84-0.81,12.38,4.67,12.38,11.43v445.85
			c0,6.76-5.54,12.23-12.38,12.23H16.16C9.32,508.3,3.78,502.82,3.78,496.06z"/>
		<path class="st13" d="M3.53,495.85V48.25c0-6.1,5-11.05,11.16-10.4h727.55c6.16-0.64,11.16,4.3,11.16,10.4v447.6
			c0,6.1-5,11.05-11.16,11.05H14.69C8.53,506.89,3.53,501.95,3.53,495.85z"/>
		<path class="st14" d="M3.28,495.63V46.28c0-5.44,4.45-9.86,9.94-9.37h729.39c5.49-0.48,9.94,3.93,9.94,9.37v449.35
			c0,5.44-4.45,9.86-9.94,9.86H13.22C7.73,505.49,3.28,501.07,3.28,495.63z"/>
		<path class="st15" d="M3.03,495.41V44.31c0-4.79,3.91-8.67,8.73-8.35h731.23c4.82-0.32,8.73,3.56,8.73,8.35v451.1
			c0,4.79-3.91,8.67-8.73,8.67H11.76C6.94,504.08,3.03,500.2,3.03,495.41z"/>
		<path class="st16" d="M2.78,495.19V42.35c0-4.13,3.36-7.48,7.51-7.32h733.07c4.15-0.16,7.51,3.19,7.51,7.32v452.85
			c0,4.13-3.36,7.48-7.51,7.48H10.29C6.14,502.67,2.78,499.33,2.78,495.19z"/>
		<path class="st17" d="M743.73,501.27H8.82c-3.48,0-6.29-2.82-6.29-6.29V40.38c0-3.48,2.82-6.29,6.29-6.29h734.91
			c3.48,0,6.29,2.82,6.29,6.29v454.6C750.02,498.45,747.2,501.27,743.73,501.27z"/>
	</g>
</g>
<g id="OBJECTS">
	<path class="st1" d="M741.77,501.27H10.78c-4.56,0-8.25-3.7-8.25-8.25V42.34c0-4.56,3.69-8.25,8.25-8.25h730.98
		c4.56,0,8.25,3.7,8.25,8.25v450.68C750.02,497.57,746.33,501.27,741.77,501.27z"/>
	<g>
		<defs>
			<path id="SVGID_1_" d="M741.98,34.09H499.83c-1.61,18.8-12.98,53.71-71.98,72.4c-83.34,26.4-123.74,61.09-115.46,122.53
				s66.82,104.58,146.56,116.65c79.74,12.07,103.74,61.53,170.09,68.74c54.73,5.94,89.8-1.41,120.97-18.63V42.13
				C750.02,37.69,746.42,34.09,741.98,34.09z"/>
		</defs>
		<clipPath id="SVGID_00000165193107709237250740000014007539792377439914_">
			<use xlink:href="#SVGID_1_"  style="overflow:visible;"/>
		</clipPath>
		<g style="clip-path:url(#SVGID_00000165193107709237250740000014007539792377439914_);">
			<path class="st19" d="M741.98,34.09H499.83c-1.61,18.8-12.98,53.71-71.98,72.4c-83.34,26.4-123.74,61.09-115.46,122.53
				s66.82,104.58,146.56,116.65c79.74,12.07,103.74,61.53,170.09,68.74c54.73,5.94,89.8-1.41,120.97-18.63V42.13
				C750.02,37.69,746.42,34.09,741.98,34.09z"/>
			<g>
				<path class="st20" d="M604.79,170.67l-43.57,13.53l-33.47-19.92c-0.67-0.4-0.55-1.4,0.19-1.63l0,0
					c4.05-1.26,8.34-1.61,12.54-1.01L604.79,170.67z"/>
				<path class="st21" d="M536.74,161.36l31.39,18.68l32.21-10l-59.85-8.41C539.24,161.45,537.99,161.37,536.74,161.36z"/>
				<path class="st22" d="M457.96,199.88l-0.55,0.17c-4.1,1.27-8.54,0.9-12.37-1.04l-40.41-20.47c-1.65-0.83-3.55-0.99-5.31-0.45
					l-2.81,0.87c-0.53,0.17-0.81,0.76-0.59,1.27l14.61,34.36l2.13,4.95L459.55,205L457.96,199.88z"/>
				<path class="st23" d="M500.12,221.72l179.26-55.65c10.28-3.19,20.16-7.53,29.47-12.93l23.58-13.69c0.34-0.2,0.66-0.44,0.94-0.71
					l0,0c3.01-2.89,1.33-7.99-2.81-8.52l-26.4-3.37c-5.25-0.67-10.58-0.2-15.63,1.36L413.51,213.6c-0.63,0.2-1.19,0.59-1.58,1.12
					l0,0c-1.29,1.72-0.51,4.2,1.54,4.87l4.77,1.56C444.81,229.81,473.42,230.01,500.12,221.72z"/>
				<path class="st1" d="M488.39,215.16l198.76-61.71c11.4-3.54,22.36-8.35,32.68-14.34l13.34-7.75c-0.69-0.6-1.58-1.02-2.61-1.15
					l-26.4-3.37c-5.25-0.67-10.58-0.2-15.63,1.36L413.51,213.6c-0.63,0.2-1.19,0.59-1.58,1.12c-0.85,1.14-0.78,2.6-0.06,3.66
					C437.14,223.93,463.52,222.89,488.39,215.16z"/>
				<path class="st21" d="M696.16,135.12l21.2-6.58l-13.22-1.73l-9.64,2.99c-1.47,0.46-2.29,2.02-1.84,3.49l0,0
					C693.13,134.75,694.69,135.57,696.16,135.12z"/>
				<g>
					<path class="st21" d="M666.23,146.55l2.21-0.68c0.47-0.15,0.74-0.65,0.59-1.12l-0.68-2.21c-0.15-0.47-0.65-0.74-1.12-0.59
						l-2.21,0.68c-0.47,0.15-0.74,0.65-0.59,1.12l0.68,2.21C665.26,146.44,665.76,146.7,666.23,146.55z"/>
					<path class="st21" d="M654.61,150.16l2.21-0.68c0.47-0.15,0.74-0.65,0.59-1.12l-0.68-2.21c-0.15-0.47-0.65-0.74-1.12-0.59
						l-2.21,0.68c-0.47,0.15-0.74,0.65-0.59,1.12l0.68,2.21C653.64,150.04,654.14,150.31,654.61,150.16z"/>
					<path class="st21" d="M642.99,153.77l2.21-0.68c0.47-0.15,0.74-0.65,0.59-1.12l-0.68-2.21c-0.15-0.47-0.65-0.74-1.12-0.59
						l-2.21,0.68c-0.47,0.15-0.74,0.65-0.59,1.12l0.68,2.21C642.01,153.65,642.51,153.92,642.99,153.77z"/>
					<path class="st21" d="M631.36,157.38l2.21-0.68c0.47-0.15,0.74-0.65,0.59-1.12l-0.68-2.21c-0.15-0.47-0.65-0.74-1.12-0.59
						l-2.21,0.68c-0.47,0.15-0.74,0.65-0.59,1.12l0.68,2.21C630.39,157.26,630.89,157.52,631.36,157.38z"/>
					<path class="st21" d="M619.74,160.99l2.21-0.68c0.47-0.15,0.74-0.65,0.59-1.12l-0.68-2.21c-0.15-0.47-0.65-0.74-1.12-0.59
						l-2.21,0.68c-0.47,0.15-0.74,0.65-0.59,1.12l0.68,2.21C618.77,160.87,619.27,161.13,619.74,160.99z"/>
					<path class="st21" d="M608.12,164.6l2.21-0.68c0.47-0.15,0.74-0.65,0.59-1.12l-0.68-2.21c-0.15-0.47-0.65-0.74-1.12-0.59
						l-2.21,0.68c-0.47,0.15-0.74,0.65-0.59,1.12l0.68,2.21C607.14,164.48,607.64,164.74,608.12,164.6z"/>
					<path class="st21" d="M596.49,168.2l2.21-0.68c0.47-0.15,0.74-0.65,0.59-1.12l-0.68-2.21c-0.15-0.47-0.65-0.74-1.12-0.59
						l-2.21,0.68c-0.47,0.15-0.74,0.65-0.59,1.12l0.68,2.21C595.52,168.09,596.02,168.35,596.49,168.2z"/>
					<path class="st21" d="M584.87,171.81l2.21-0.68c0.47-0.15,0.74-0.65,0.59-1.12l-0.68-2.21c-0.15-0.47-0.65-0.74-1.12-0.59
						l-2.21,0.68c-0.47,0.15-0.74,0.65-0.59,1.12l0.68,2.21C583.9,171.7,584.4,171.96,584.87,171.81z"/>
					<path class="st21" d="M573.25,175.42l2.21-0.68c0.47-0.15,0.74-0.65,0.59-1.12l-0.68-2.21c-0.15-0.47-0.65-0.74-1.12-0.59
						l-2.21,0.68c-0.47,0.15-0.74,0.65-0.59,1.12l0.68,2.21C572.27,175.3,572.77,175.57,573.25,175.42z"/>
					<path class="st21" d="M561.62,179.03l2.21-0.68c0.47-0.15,0.74-0.65,0.59-1.12l-0.68-2.21c-0.15-0.47-0.65-0.74-1.12-0.59
						l-2.21,0.68c-0.47,0.15-0.74,0.65-0.59,1.12l0.68,2.21C560.65,178.91,561.15,179.18,561.62,179.03z"/>
					<path class="st21" d="M550,182.64l2.21-0.68c0.47-0.15,0.74-0.65,0.59-1.12l-0.68-2.21c-0.15-0.47-0.65-0.74-1.12-0.59
						l-2.21,0.68c-0.47,0.15-0.74,0.65-0.59,1.12l0.68,2.21C549.03,182.52,549.53,182.78,550,182.64z"/>
					<path class="st21" d="M538.38,186.25l2.21-0.68c0.47-0.15,0.74-0.65,0.59-1.12l-0.68-2.21c-0.15-0.47-0.65-0.74-1.12-0.59
						l-2.21,0.68c-0.47,0.15-0.74,0.65-0.59,1.12l0.68,2.21C537.4,186.13,537.9,186.39,538.38,186.25z"/>
					<path class="st21" d="M526.75,189.86l2.21-0.68c0.47-0.15,0.74-0.65,0.59-1.12l-0.68-2.21c-0.15-0.47-0.65-0.74-1.12-0.59
						l-2.21,0.68c-0.47,0.15-0.74,0.65-0.59,1.12l0.68,2.21C525.78,189.74,526.28,190,526.75,189.86z"/>
				</g>
				<path class="st20" d="M623.3,168.55l-67.08,20.83l-24.65,53.47c-0.68,1.47,0.71,3.05,2.25,2.57l1.63-0.51
					c4.48-1.39,8.6-3.76,12.06-6.92L623.3,168.55z"/>
				<path class="st21" d="M545.41,238.93c-0.14,0.31-0.18,0.63-0.17,0.93c0.78-0.59,1.54-1.21,2.26-1.87l75.79-69.44l-53.03,16.46
					L545.41,238.93z"/>
				<polygon class="st22" points="435.17,210.54 411.56,217.87 402.26,238.04 406.64,236.68 				"/>
			</g>
			<g>
				<path class="st1" d="M423.79,152.9c1.36-2.51,5.08-4.32,9.48-4.32c1.22,0,2.38,0.15,3.47,0.4c0.53-1.53,1.92-2.85,3.83-3.75
					c1.17-5.67,8.75-10.05,17.94-10.05c6.93,0,12.95,2.49,16,6.15c1.68-0.62,3.63-0.98,5.72-0.98c6.33,0,11.46,3.28,11.46,7.32
					c0,0.32-0.04,0.63-0.11,0.94c0.34-0.02,0.68-0.03,1.03-0.03c4.39,0,8.12,1.81,9.48,4.32H423.79z"/>
				<path class="st1" d="M287.34,193.56c1.36-2.51,5.08-4.32,9.48-4.32c1.22,0,2.38,0.15,3.47,0.4c0.53-1.53,1.92-2.85,3.83-3.75
					c1.17-5.67,8.75-10.05,17.94-10.05c6.93,0,12.95,2.49,16,6.15c1.68-0.62,3.63-0.98,5.72-0.98c6.33,0,11.46,3.28,11.46,7.32
					c0,0.32-0.04,0.63-0.11,0.94c0.34-0.02,0.68-0.03,1.03-0.03c4.39,0,8.12,1.81,9.48,4.32H287.34z"/>
				<path class="st1" d="M606.87,218.95c1.36-2.51,5.08-4.32,9.48-4.32c1.22,0,2.39,0.15,3.47,0.4c0.53-1.53,1.92-2.85,3.83-3.75
					c1.17-5.67,8.75-10.05,17.94-10.05c6.93,0,12.95,2.49,16,6.15c1.68-0.62,3.63-0.98,5.71-0.98c6.33,0,11.46,3.28,11.46,7.32
					c0,0.32-0.04,0.63-0.11,0.94c0.34-0.02,0.68-0.03,1.03-0.03c4.39,0,8.12,1.81,9.48,4.32H606.87z"/>
				<path class="st1" d="M633.66,131.77c-1.38-2.55-5.16-4.38-9.62-4.38c-1.24,0-2.42,0.15-3.52,0.41c-0.54-1.55-1.95-2.89-3.89-3.8
					c-1.19-5.75-8.88-10.2-18.21-10.2c-7.04,0-13.14,2.53-16.24,6.24c-1.71-0.63-3.69-1-5.8-1c-6.42,0-11.63,3.33-11.63,7.43
					c0,0.33,0.04,0.64,0.11,0.96c-0.34-0.02-0.69-0.03-1.05-0.03c-4.46,0-8.24,1.83-9.62,4.38H633.66z"/>
				<path class="st1" d="M624.22,62.9c1.08-2.01,4.06-3.45,7.57-3.45c0.97,0,1.9,0.12,2.77,0.32c0.43-1.22,1.54-2.27,3.06-2.99
					c0.94-4.53,6.99-8.02,14.33-8.02c5.54,0,10.34,1.99,12.78,4.91c1.34-0.5,2.9-0.78,4.56-0.78c5.05,0,9.15,2.62,9.15,5.85
					c0,0.26-0.03,0.51-0.08,0.75c0.27-0.02,0.55-0.03,0.82-0.03c3.51,0,6.48,1.44,7.57,3.45H624.22z"/>
				<path class="st1" d="M525.34,53.72c0.48-0.89,1.8-1.53,3.36-1.53c0.43,0,0.84,0.05,1.23,0.14c0.19-0.54,0.68-1.01,1.36-1.33
					c0.42-2.01,3.1-3.56,6.35-3.56c2.46,0,4.59,0.88,5.66,2.18c0.6-0.22,1.29-0.35,2.02-0.35c2.24,0,4.06,1.16,4.06,2.59
					c0,0.11-0.02,0.22-0.04,0.33c0.12-0.01,0.24-0.01,0.37-0.01c1.56,0,2.88,0.64,3.36,1.53H525.34z"/>
				<path class="st1" d="M783.29,190.05c-1.23-2.28-4.62-3.92-8.61-3.92c-1.11,0-2.17,0.13-3.15,0.36c-0.49-1.39-1.75-2.58-3.48-3.4
					c-1.06-5.15-7.94-9.13-16.29-9.13c-6.3,0-11.76,2.26-14.53,5.58c-1.53-0.56-3.3-0.89-5.19-0.89c-5.75,0-10.41,2.98-10.41,6.65
					c0,0.29,0.04,0.58,0.1,0.86c-0.31-0.02-0.62-0.03-0.94-0.03c-3.99,0-7.37,1.64-8.61,3.92H783.29z"/>
			</g>
			<g>
				<rect x="295.98" y="340.55" class="st24" width="524.63" height="94.06"/>
				<rect x="295.98" y="305.84" class="st24" width="524.63" height="20.34"/>
			</g>
			<g>
				<rect x="288.31" y="34.09" class="st25" width="461.71" height="393.49"/>
				<g class="st26">
					<polygon class="st1" points="282.22,424.34 261.67,424.34 528.54,13.68 549.09,13.68 					"/>
					<polygon class="st1" points="620.33,424.34 599.78,424.34 866.64,13.68 887.19,13.68 					"/>
					<polygon class="st1" points="582.36,424.34 505.09,424.34 771.96,13.68 849.23,13.68 					"/>
					<polygon class="st1" points="245.08,424.34 167.81,424.34 434.68,13.68 511.95,13.68 					"/>
				</g>
			</g>
			<g>
				<rect x="403.59" y="-11.38" class="st1" width="11.29" height="434.1"/>
				<rect x="693.97" y="-11.38" class="st1" width="11.29" height="434.1"/>
				
					<rect x="548.65" y="-198.82" transform="matrix(-1.836970e-16 1 -1 -1.836970e-16 656.4626 -452.3858)" class="st1" width="11.56" height="601.71"/>
			</g>
		</g>
	</g>
	<ellipse class="st19" cx="513.27" cy="428.13" rx="102.13" ry="9.95"/>
	<path class="st27" d="M555.09,288.35l-36.27,9.15c0,0,9.37,40.66,13.02,55.56c3.73,15.26,1.67,64.33,1.67,64.33h10.37l5.61-64.52
		L555.09,288.35z"/>
	<path class="st28" d="M547.2,222.28c0,0,3.7,12.76,9.67,34.41c0,0,7.7,2.8,28.53,4.27l-0.65,6.92c0,0-22.97,4.16-35.63-1.07
		C536.44,261.59,525.83,215.27,547.2,222.28z"/>
	<g>
		<polygon class="st29" points="567.28,266.91 578.14,279.48 595.69,256.63 588.59,242.95 		"/>
		<polygon class="st30" points="565.37,272.18 583.81,247.46 595.69,256.63 578.14,279.48 		"/>
	</g>
	<path class="st28" d="M592.63,261.71c-0.08-0.38-0.57-0.52-0.89-0.31c-0.64,0.41-1.39,1.35-3.18,1.4
		c-1.78,0.05-4.12-1.19-4.89-0.38c0,0-3.85,4.92,0.06,9.78C583.73,272.2,595.56,275.29,592.63,261.71z"/>
	<path class="st29" d="M539.89,259.2c0,0,9.22-1.36,16.78-7.88c0,0-2.68-14.39-6.4-23.07c-3.72-8.68-9.6-16.28-19.15-10.63
		C521.57,223.27,524.35,236.23,539.89,259.2z"/>
	<path class="st30" d="M509.09,253.4c0,0,7.88,4.99,17.86,4.99c0,0,7.37-12.65,10.22-21.65c2.85-9,3.36-18.59-7.56-20.55
		C518.68,214.22,512.32,225.86,509.09,253.4z"/>
	<path class="st31" d="M550.09,292.26c0,0-22.41-7.57-36.31,4.95c0,0,2.55,11.76,10.21,25.84c12.96,23.8,19.59,31.51,19.59,31.51
		s-14.12,12.57-41.34,43.98c0,0,1.7,6.43,7.18,8.48c0,0,39.88-37.62,51.92-47.65c3.93-3.28,3.13-5.75,1.58-13.01
		C560.31,334.07,551.63,297.87,550.09,292.26z"/>
	<path class="st28" d="M531.01,199.01l-0.48,9.84c0,0,7.72,6.36,14.09,6.07l2.94-13.11l-18.01-12.23L531.01,199.01z"/>
	<path class="st32" d="M534.72,197.29c0,0,4.11,7.66,11.6,10l1.23-5.49L534.72,197.29z"/>
	<g>
		<path class="st33" d="M518.91,332.88l-18.31-13.9c-1.03-0.78-1.23-2.25-0.45-3.28l0,0c0.78-1.03,2.25-1.23,3.28-0.45l18.31,13.9
			c1.03,0.78,1.23,2.25,0.45,3.28l0,0C521.4,333.46,519.94,333.66,518.91,332.88z"/>
		<line class="st34" x1="503.68" y1="320.53" x2="463.42" y2="373.54"/>
		<line class="st34" x1="516.57" y1="330.35" x2="476.31" y2="383.36"/>
	</g>
	<path class="st35" d="M514.96,224.01c0,0-19.6,0.99-22.74,12.04c-3.14,11.06-2.72,54.51-2.72,54.51s4.13,9.88,17.39,11.15
		c0,0,6.91,1.59,6.51-12.9C512.99,274.31,514.96,224.01,514.96,224.01z"/>
	<path class="st36" d="M503.93,226.16c0,0-1.96,1.72-3.01,3.97c-3.85,8.27-2.66,30.55-4.29,32.34c-1.36,1.49-3.67,1.77-5.96,2.4
		c-0.98,0.27-2.11-0.35-2.06-1.3C489.48,244.51,488,228.66,503.93,226.16z"/>
	<path class="st36" d="M489.68,267.56c0,0,5.27-1.21,6.19,0.05c1.31,1.8,0.8,22.25-0.66,22.81c-1.46,0.56-6.6,0.11-6.89-0.32
		C487.22,288.48,486.54,268.22,489.68,267.56z"/>
	<path class="st28" d="M555.97,174.34c0,0,5.43,26.42-2.64,29.65s-19.87-4.99-22.75-13.36
		C528.11,183.51,528.37,166.56,555.97,174.34z"/>
	<path class="st35" d="M547.98,178.49c0,0,2.19,5.61-2.14,6.93c-3.53,1.08-4.55,3.67-4.55,3.67s-0.72-5.64-4.56-5.85
		c-4.18-0.23-3.95,5.74-0.28,8.68c0,0,0,7.08-5.43,7.08c0,0-12.25-14.06-6.89-22.54c-0.79-2.58,2.87-9.49,12.26-10.37
		c9.4-0.88,12.09,1.31,19.22-0.9C562.42,163.08,566.91,179.45,547.98,178.49z"/>
	<polyline class="st37" points="532.5,290.07 556.67,352.87 505.4,402.1 	"/>
	<g>
		<path class="st33" d="M464.51,428.1c0,3.24-2.63,5.87-5.87,5.87c-3.24,0-5.87-2.63-5.87-5.87c0-3.24,2.63-5.87,5.87-5.87
			C461.88,422.22,464.51,424.85,464.51,428.1z"/>
		<path class="st33" d="M442.64,417.72c0,3.24-2.63,5.87-5.87,5.87c-3.24,0-5.87-2.63-5.87-5.87c0-3.24,2.63-5.87,5.87-5.87
			C440.01,411.85,442.64,414.48,442.64,417.72z"/>
		<path class="st33" d="M490.25,372.41c0,0,1.81,26.23-7.59,40.71c-9.4,14.48-23.1,12.14-23.1,12.14l2.83-4.44
			c0,0,9.9,4.05,15.77-11.42c5.87-15.46,4.7-31.51,4.7-31.51L490.25,372.41z"/>
		<path class="st35" d="M479.39,365c0,0,5.88,0.56,10.53,6.15c3.59,4.31-23.31,45.91-29.36,55.14c-0.72,1.1-2.06,1.62-3.33,1.28
			c-4.33-1.16-14.33-4.26-21.6-9.75C435.63,417.81,463.4,369.08,479.39,365z"/>
		<path class="st36" d="M481.47,365.46c0,0-22.08-13.29-33.95-2.25c-7.87,7.32-23.03,27.94-28.91,36.07
			c-1.42,1.97-1.2,4.67,0.54,6.37c3.79,3.71,11.73,9.58,17.34,12.64c0.83,0.45,1.86,0.19,2.38-0.6
			C443.67,410.42,466.64,376.23,481.47,365.46z"/>
		<path class="st38" d="M432.56,382.08c-0.87-0.68-2.16-0.31-2.83,0.56c-2.81,3.69-9.82,12.91-10.86,14.65
			c-2.04,3.42,6.28,10.63,16.45,15.99c3.18,1.68,7.06-5.6,11.15-11.18c2.71-3.69,5.04-6.93,4.73-8.12
			c-0.33-1.29-5.63-2.93-10.47-5.93C437.56,386.08,434.87,383.89,432.56,382.08z"/>
		<path class="st38" d="M481.47,365.46c0,0-9.98-7.08-24.13-7.29c-12.02-0.19-25.23,20.63-25.23,20.63
			c-1.71,2.19,18.89,14.67,21.19,11.83c9.11-11.21,18.01-19.72,22.54-23.83C476.15,366.53,478.59,364.56,481.47,365.46z"/>
		<path class="st39" d="M444.04,415.6l12.3-18.55c0.45-0.67,1.32-0.92,2.05-0.57l12.04,5.71c0.76,0.36,1.03,1.31,0.56,2.02
			l-11.92,18.07c-0.69,1.04-2.02,1.45-3.17,0.97l-10.92-4.55C443.77,418.19,443.31,416.7,444.04,415.6z"/>
	</g>
	<g>
		<g>
			<g>
				<path class="st40" d="M527.78,210.09c0,0-12.04,2.18-13.99,20.18c-1.96,18.01,0,68.98,0,68.98s11.28,4.37,24.07-1.86
					c8.23-4.01,13.5-4.23,15.72-4.74c0.9-0.21,1.53-0.99,1.54-1.91c0.02-1.96,0.06-5.74,0.04-11.44
					c-0.04-15.91-1.76-42.98-8.61-61.55C546.55,217.75,534.92,210.65,527.78,210.09z"/>
			</g>
		</g>
	</g>
	<path class="st41" d="M535.9,242.99c-10.05-0.5-17.48,3.52-22.98,9.71c-0.11,21.25,0.86,46.56,0.86,46.56s6.71,2.58,15.64,0.92
		c-6.39-9.77-6.44-18.73-0.92-29.72C532.92,261.66,535.9,242.99,535.9,242.99z"/>
	<path class="st35" d="M513.79,230.27c0,0,9.55-15.54,16.54-12.92c8.59,3.23,10.33,19.84-2.54,37.22l-6.85,7.26l-1.76,6.46
		c0,0,17.47-15.41,21.58-30.39c4.11-14.97-1.29-20.92-8.81-23.49c-9.25-3.16-13.68,2.48-19.32,10.28L513.79,230.27z"/>
	<path class="st28" d="M512.22,246.32c0,0-2.94,12.72-3.91,28.77c-0.82,13.5-0.95,30.12-0.97,35.06c0,0.85-0.33,1.66-0.94,2.26
		c-1.61,1.58-4.68,5.46-4.16,11.71c0.18,2.19,1.14,5.22,6.59,6.96c0.75,0.24,2.72,1.06,2.72-2.75c0-3.82,1.54-6.39,3.11-7.66
		c1.57-1.27,3.16,2.08,3.16,4.82c0,2.74,1.84,1,2.2-0.94s0.07-7.16-4.04-12.59c0,0-0.07-0.95,0.44-7.49
		c0.51-6.53,1.61-28.65,3.96-34.3c2.35-5.65,9.11-21.78,9.11-21.78L512.22,246.32z"/>
	<path class="st40" d="M509.09,254.65c0,0,7.88,3.73,17.86,3.73c0,0,7.37-12.65,10.22-21.65c2.85-9,3.36-18.59-7.56-20.55
		C518.68,214.22,512.32,227.12,509.09,254.65z"/>
	<g>
		<g>
			<g>
				<path class="st35" d="M533.7,416.32c0,0-2.88,4.2-1.48,10.28c0.21,0.9,0.98,1.52,1.84,1.52h31.17c0.64,0,1.15-0.6,1.07-1.29
					c-0.21-1.77-1.67-4.85-9.07-5.76c-2.03-0.25-3.97-1.01-5.58-2.27c-2.67-2.09-6.73-4.94-8.13-4.15
					C543.52,414.64,539.05,417.34,533.7,416.32z"/>
			</g>
		</g>
	</g>
	<path class="st31" d="M530.63,206.69c-1.11,0.04-2.85,3.4-2.85,3.4s3.3,2.54,11.32,5.48c3.72,1.36,5.57,3.28,6.43,4.48
		c0.26,0.36,0.83,0.22,0.88-0.22c0.23-1.78,0.34-4.92-1.4-6.73C545.02,213.11,533.97,210.09,530.63,206.69z"/>
	<g>
		<g>
			<g>
				<path class="st35" d="M502.41,398.64c0,0-5.05,0.64-8.66,5.73c-0.53,0.75-0.49,1.74,0.09,2.38l20.72,23.28
					c0.43,0.48,1.22,0.46,1.68-0.06c1.19-1.33,2.51-4.47-1.72-10.61c-1.16-1.68-1.89-3.64-2.02-5.68c-0.21-3.38-0.78-8.31-2.3-8.83
					C510.19,404.85,505.2,403.31,502.41,398.64z"/>
			</g>
		</g>
	</g>
	<polygon class="st33" points="515.27,324.25 520.18,327.97 519.77,330.15 514.05,327.29 	"/>
	<g>
		<path class="st39" d="M381.32,369.24c0,1.41-7.68,2.55-17.15,2.55c-9.47,0-17.15-1.14-17.15-2.55c0-1.41,7.68-2.55,17.15-2.55
			C373.64,366.69,381.32,367.83,381.32,369.24z"/>
		<ellipse class="st19" cx="364.17" cy="427.26" rx="32.21" ry="3.71"/>
		<g>
			<g>
				<path class="st22" d="M368.35,373.71c0,0-3.55-10.7,0.98-15.54c4.54-4.84-2.72-13.01,8.03-17.62
					c10.76-4.61,10.38-15.39,19.74-15.44c9.36-0.05,16.72-4.41,19.77-0.27c3.05,4.14-11.14,6.14-11.17,13.16
					c-0.03,7.02-1.41,7.69-5.25,12.06c-2.15,2.45-1.15,7.88-5.92,13.13C390.79,367.3,380.94,365.91,368.35,373.71z"/>
				<path class="st42" d="M368.35,373.71c0,0,4.48-10.74,14.8-16.43c10.32-5.69,6.68-28.85,33.73-32.44"/>
			</g>
			<g>
				<path class="st30" d="M370.46,378.8c0,0-1.89-15.3,1.57-27.61c3.46-12.31-2.2-16.24-11.9-19.42c-9.7-3.18-3.61-13.31-6.49-22.76
					c-2.88-9.45-10.15,5.23-12.56-7.64c-2.41-12.87-6.09-19.51-9.02-18.96c-2.93,0.55-3.92,3.4-6.01,18.11
					c-2.1,14.72-12.32,13.63-3.45,25.3c8.86,11.66,11.12,8.37,6.2,18.49C318.27,365.93,355.93,359.54,370.46,378.8z"/>
				<path class="st43" d="M370.46,378.8c0,0-4.83-25.74-18.74-38.45c-13.92-12.71-23.14-26.3-19.66-57.93"/>
			</g>
			<g>
				<path class="st22" d="M365.62,376.7c0,0-15.11-40.04-25.51-37.51c-10.4,2.53-11.44,3.06-20.92-4.52
					c-9.48-7.58-16.37,0.69-9.12,6.76c7.25,6.07,7.5,6.62,0.59,13.31c-6.91,6.69,9.58,14.17,24.09,11.92
					C349.25,364.41,363.34,373.4,365.62,376.7z"/>
				<path class="st44" d="M365.62,376.7c0,0-7.08-14.88-26.16-18.74c-19.08-3.86-10.16-16.44-32.4-22.26"/>
			</g>
		</g>
		<path class="st38" d="M364.17,371.79c-7.93,0-14.59-0.8-16.55-1.89c1.94,2.52,8.18,13.74,11.87,56.87c0,0.63,2.09,1.13,4.68,1.13
			c2.58,0,4.68-0.51,4.68-1.13c3.69-43.14,9.93-54.35,11.87-56.87C378.76,370.99,372.11,371.79,364.17,371.79z"/>
	</g>
</g>
<g id="DESIGNED_BY_FREEPIK">
</g>
</svg>
