<?xml version="1.0" encoding="utf-8"?>
<!-- Generator: Adobe Illustrator 27.3.1, SVG Export Plug-In . SVG Version: 6.00 Build 0)  -->
<svg version="1.1" id="Layer_1" xmlns="http://www.w3.org/2000/svg" xmlns:xlink="http://www.w3.org/1999/xlink" x="0px" y="0px"
	 viewBox="0 0 612 792" style="enable-background:new 0 0 612 792;" xml:space="preserve">
<style type="text/css">
	.st0{fill:#E8B820;}
	.st1{fill:#3953A4;}
	.st2{fill:#173D69;}
</style>
<g>
	<path class="st0" d="M470.67,302.73c-3.3-5.06-6.85-9.99-10.61-14.73c-9.59-12.13-20.61-23.13-32.79-32.65
		c-14.59-11.41-30.83-20.65-48.25-27.1c-4.59-2.1-9.27-4-14.03-5.7c-0.04-0.02-0.08-0.03-0.11-0.04
		c-42.32-13.95-87.58-10.3-124.4,14.11c-41.51,27.52-62.88,75.18-61.97,126.23c15.61-16.19,35.26-29.19,58.12-37.3
		c75.95-26.94,158.46,10.26,184.3,83.09c13.54,38.16,8.84,78.53-9.63,112.19c-0.38,0.96-0.78,1.91-1.19,2.87
		c-0.52,1.2,0.86,2.32,1.92,1.56c18.29-13.3,34.24-30.44,46.53-51.04c18.64-30.63,26.19-62.49,25.07-93
		c7.06,26.09,8.45,53.67,3.19,79.96c-0.48,2.42,2.97,3.43,3.87,1.13C511.92,408.36,501.11,349.28,470.67,302.73z"/>
</g>
<g>
	<path class="st1" d="M407.65,640.25c-77.47-48.99-168.41,18.21-265.81-101.89c-0.4-0.5,0.2-1.2,0.75-0.87
		c92.01,55.76,187.05,26.96,267.28,99.79C411.51,638.76,409.52,641.43,407.65,640.25z"/>
</g>
<g>
	<path class="st1" d="M509.78,264.82c-61.98-83.8-193.04-100.19-273.91-34.29l-0.01,0.01c-0.01,0.01-0.01,0-0.02,0.01
		c-15.76,10.72-28.9,24.65-39.46,40.62c-1.06,1.6-2.09,3.21-3.09,4.85c-0.1,0.15-0.2,0.3-0.29,0.45
		c-17.54,28.75-27.15,63.32-28.97,97.31c-0.52,14.45,0.4,28.98,2.74,43.32c0.18,1.16,0.39,2.32,0.59,3.48
		c2.58,14.48,6.61,28.72,12.03,42.36c16.18,40.72,44.81,76.23,84.83,97.61c8.53,4.92,17.27,9.15,26.16,12.71
		c1.28,0.51,0.94,2.31-0.26,2.46c-0.29-0.02-0.58-0.05-0.87-0.08c-9.22-0.89-18.55-2.34-27.93-4.37
		c-13.61-2.95-27.33-7.13-40.93-12.59c-64.55-25.9-110.89-74.31-127.33-125.75c-5.34-16.71-7.53-33.73-6.16-50.41
		c-0.77-53.43,17.43-100.42,47.07-137.84c51.67-65.27,138.07-101.37,219.15-91.63c10.47,1.26,20.84,3.28,31.03,6.1
		c50.29,13.9,96.32,47.24,127.79,104.31C512.7,264.84,510.73,266.09,509.78,264.82z"/>
</g>
<g>
	<path class="st2" d="M423.7,447.52c0.01,5.86-0.43,11.86-1.32,17.97c-0.3,2.03-0.65,4.06-1.05,6.11c-0.14,0.69-0.27,1.37-0.42,2.06
		c-0.29,1.37-0.61,2.75-0.95,4.13c-0.17,0.69-0.35,1.39-0.53,2.08c0.16-10.24-0.96-20.47-3.23-30.48c-0.02-0.07-0.04-0.14-0.05-0.2
		c-0.8-3.78-1.74-7.49-2.83-11.12c-8.36-28.09-24.88-51.55-46.29-68.18c-23.59-18.33-53.12-28.38-84.23-27.21
		c-4.72,0.45-9.5,1.23-14.31,2.37c0.47-0.02,0.94-0.05,1.41-0.07c10.81-0.49,21.66,0.42,32.15,2.77c12.56,2.8,24.63,7.64,35.5,14.59
		c9.21,5.88,17.57,13.27,24.68,22.2c0.97,1.22-0.67,2.79-1.84,1.76c-14.16-12.44-31.78-20.89-50.37-24.88
		c-25.56-5.48-52.92-2.51-75.61,10.14c-1.75,0.93-3.47,1.91-5.16,2.93c-13.89,8.4-25.77,19.91-34.47,33.82
		c-2.29,3.6-4.34,7.38-6.14,11.29c-2.82-8.21-5.04-16.48-6.68-24.77v-0.01c-0.3-1.51-0.58-3.03-0.84-4.54
		c0.15-0.21,0.31-0.42,0.46-0.62v-0.01c0.01-0.01,0.01-0.01,0.01-0.01l0.01-0.01c17.12-36.35,61.13-62.22,112.73-62.22
		c6.44,0,12.76,0.41,18.92,1.18l0.13,0.02c0.02,0,0.05,0.01,0.07,0.01c0.44,0.04,0.88,0.09,1.32,0.14c0.44,0.05,0.88,0.1,1.32,0.15
		c0.44,0.05,0.88,0.11,1.32,0.17c1.76,0.23,3.5,0.51,5.24,0.82c0.57,0.1,1.15,0.21,1.72,0.32c1.59,0.3,3.18,0.65,4.76,1.03
		c0.41,0.1,0.83,0.2,1.24,0.3c1.66,0.41,3.31,0.85,4.95,1.34c0.45,0.13,0.89,0.26,1.33,0.39c0.05,0.01,0.09,0.03,0.13,0.04
		c0.39,0.12,0.77,0.24,1.16,0.36c0.06,0.02,0.13,0.04,0.18,0.06c0.35,0.11,0.7,0.22,1.04,0.34c1.12,0.36,2.24,0.75,3.35,1.15
		c0.25,0.08,0.5,0.17,0.74,0.27c1.17,0.43,2.33,0.87,3.48,1.33c1.21,0.49,2.41,0.99,3.61,1.51c0.65,0.28,1.29,0.57,1.94,0.86
		c0.57,0.26,1.14,0.53,1.71,0.8c0.08,0.04,0.17,0.08,0.26,0.12c17.7,8.47,33.39,21.05,45.36,36.69c0.24,0.32,0.49,0.64,0.73,0.97
		c0.45,0.6,0.89,1.2,1.33,1.81c0.9,1.25,1.78,2.52,2.63,3.8c0.42,0.64,0.85,1.29,1.26,1.94c0.41,0.65,0.82,1.31,1.22,1.96
		c0.2,0.33,0.4,0.66,0.6,0.99c0.79,1.33,1.56,2.67,2.29,4.03c0.37,0.68,0.73,1.36,1.09,2.05c0.36,0.69,0.71,1.38,1.05,2.08
		c0.24,0.48,0.48,0.97,0.7,1.45c1.64,3.45,3.12,6.98,4.42,10.61c0.24,0.67,0.47,1.34,0.7,2c0.34,1,0.66,2,0.97,3.02
		c0.14,0.46,0.29,0.93,0.42,1.39c0.06,0.2,0.12,0.39,0.17,0.59c0.18,0.6,0.35,1.2,0.51,1.81c0.42,1.53,0.8,3.08,1.15,4.64
		c0.12,0.51,0.23,1.02,0.34,1.53c0.2,0.95,0.39,1.9,0.56,2.85c0.05,0.26,0.1,0.52,0.14,0.78c0.23,1.3,0.45,2.61,0.63,3.93
		c0.04,0.26,0.08,0.52,0.11,0.79c0.07,0.51,0.14,1.01,0.2,1.51c0.07,0.52,0.13,1.03,0.18,1.55c0.13,1.15,0.23,2.31,0.32,3.47
		c0.04,0.4,0.07,0.8,0.09,1.21c0.04,0.55,0.07,1.12,0.1,1.68c0.02,0.42,0.04,0.83,0.06,1.25c0.02,0.42,0.04,0.83,0.05,1.25
		c0.01,0.32,0.02,0.64,0.03,0.97c0.01,0.4,0.01,0.79,0.02,1.19C423.69,446.48,423.7,447.01,423.7,447.52z"/>
</g>
</svg>
